# MagicaVoxel @ Ephtracy

# group
o 

# material
mtllib Final-485.mtl
usemtl palette

# normals
vn -1 0 0
vn 1 0 0
vn 0 0 -1
vn 0 0 1
vn 0 -1 0
vn 0 1 0

# texcoords
vt 0.169922 0.5

# verts
v -70 9 -49.9
v -70 9 -48.4
v -70 9.1 -48.4
v -70 9.1 -48.3
v -70 9.2 -48.3
v -70 9.2 -48.1
v -70 9.3 -48.1
v -70 9.3 -48
v -70 9.4 -48
v -70 9.4 -47.8
v -70 9.5 -47.8
v -70 9.5 -47.7
v -70 9.6 -47.7
v -70 9.6 -47.5
v -70 9.7 -47.5
v -70 9.7 -47.3
v -70 9.8 -47.3
v -70 9.8 -47.2
v -70 9.9 -47.2
v -70 9.9 -47
v -70 10 -48.5
v -70 10 -47
v -70 10.9 -49.9
v -70 10.9 -48.5
v -60 9 -49.9
v -60 9 -48.4
v -60 9.1 -48.4
v -60 9.1 -48.3
v -60 9.2 -48.3
v -60 9.2 -48.1
v -60 9.3 -48.1
v -60 9.3 -48
v -60 9.4 -48
v -60 9.4 -47.8
v -60 9.5 -47.8
v -60 9.5 -47.7
v -60 9.6 -47.7
v -60 9.6 -47.5
v -60 9.7 -47.5
v -60 9.7 -47.3
v -60 9.8 -47.3
v -60 9.8 -47.2
v -60 9.9 -47.2
v -60 9.9 -47
v -60 10 -48.5
v -60 10 -47
v -60 10.9 -49.9
v -60 10.9 -48.5
v -70 9 -49.9
v -70 10.9 -49.9
v -60 9 -49.9
v -60 10.9 -49.9
v -70 10 -48.5
v -70 10.9 -48.5
v -60 10 -48.5
v -60 10.9 -48.5
v -70 9 -48.4
v -70 9.1 -48.4
v -60 9 -48.4
v -60 9.1 -48.4
v -70 9.1 -48.3
v -70 9.2 -48.3
v -60 9.1 -48.3
v -60 9.2 -48.3
v -70 9.2 -48.1
v -70 9.3 -48.1
v -60 9.2 -48.1
v -60 9.3 -48.1
v -70 9.3 -48
v -70 9.4 -48
v -60 9.3 -48
v -60 9.4 -48
v -70 9.4 -47.8
v -70 9.5 -47.8
v -60 9.4 -47.8
v -60 9.5 -47.8
v -70 9.5 -47.7
v -70 9.6 -47.7
v -60 9.5 -47.7
v -60 9.6 -47.7
v -70 9.6 -47.5
v -70 9.7 -47.5
v -60 9.6 -47.5
v -60 9.7 -47.5
v -70 9.7 -47.3
v -70 9.8 -47.3
v -60 9.7 -47.3
v -60 9.8 -47.3
v -70 9.8 -47.2
v -70 9.9 -47.2
v -60 9.8 -47.2
v -60 9.9 -47.2
v -70 9.9 -47
v -70 10 -47
v -60 9.9 -47
v -60 10 -47
v -70 9 -49.9
v -60 9 -49.9
v -70 9 -48.4
v -60 9 -48.4
v -70 9.1 -48.4
v -60 9.1 -48.4
v -70 9.1 -48.3
v -60 9.1 -48.3
v -70 9.2 -48.3
v -60 9.2 -48.3
v -70 9.2 -48.1
v -60 9.2 -48.1
v -70 9.3 -48.1
v -60 9.3 -48.1
v -70 9.3 -48
v -60 9.3 -48
v -70 9.4 -48
v -60 9.4 -48
v -70 9.4 -47.8
v -60 9.4 -47.8
v -70 9.5 -47.8
v -60 9.5 -47.8
v -70 9.5 -47.7
v -60 9.5 -47.7
v -70 9.6 -47.7
v -60 9.6 -47.7
v -70 9.6 -47.5
v -60 9.6 -47.5
v -70 9.7 -47.5
v -60 9.7 -47.5
v -70 9.7 -47.3
v -60 9.7 -47.3
v -70 9.8 -47.3
v -60 9.8 -47.3
v -70 9.8 -47.2
v -60 9.8 -47.2
v -70 9.9 -47.2
v -60 9.9 -47.2
v -70 9.9 -47
v -60 9.9 -47
v -70 10 -48.5
v -60 10 -48.5
v -70 10 -47
v -60 10 -47
v -70 10.9 -49.9
v -60 10.9 -49.9
v -70 10.9 -48.5
v -60 10.9 -48.5

# faces
f 1/1/1 2/1/1 3/1/1
f 3/1/1 4/1/1 5/1/1
f 5/1/1 6/1/1 7/1/1
f 7/1/1 8/1/1 9/1/1
f 9/1/1 10/1/1 11/1/1
f 11/1/1 12/1/1 13/1/1
f 13/1/1 14/1/1 15/1/1
f 15/1/1 16/1/1 17/1/1
f 17/1/1 18/1/1 19/1/1
f 1/1/1 3/1/1 21/1/1
f 19/1/1 20/1/1 21/1/1
f 17/1/1 19/1/1 21/1/1
f 15/1/1 17/1/1 21/1/1
f 13/1/1 15/1/1 21/1/1
f 11/1/1 13/1/1 21/1/1
f 9/1/1 11/1/1 21/1/1
f 7/1/1 9/1/1 21/1/1
f 5/1/1 7/1/1 21/1/1
f 3/1/1 5/1/1 21/1/1
f 21/1/1 20/1/1 22/1/1
f 1/1/1 21/1/1 23/1/1
f 23/1/1 21/1/1 24/1/1
f 27/1/2 26/1/2 25/1/2
f 29/1/2 28/1/2 27/1/2
f 31/1/2 30/1/2 29/1/2
f 33/1/2 32/1/2 31/1/2
f 35/1/2 34/1/2 33/1/2
f 37/1/2 36/1/2 35/1/2
f 39/1/2 38/1/2 37/1/2
f 41/1/2 40/1/2 39/1/2
f 43/1/2 42/1/2 41/1/2
f 45/1/2 27/1/2 25/1/2
f 45/1/2 44/1/2 43/1/2
f 45/1/2 43/1/2 41/1/2
f 45/1/2 41/1/2 39/1/2
f 45/1/2 39/1/2 37/1/2
f 45/1/2 37/1/2 35/1/2
f 45/1/2 35/1/2 33/1/2
f 45/1/2 33/1/2 31/1/2
f 45/1/2 31/1/2 29/1/2
f 45/1/2 29/1/2 27/1/2
f 46/1/2 44/1/2 45/1/2
f 47/1/2 45/1/2 25/1/2
f 48/1/2 45/1/2 47/1/2
f 49/1/3 50/1/3 51/1/3
f 51/1/3 50/1/3 52/1/3
f 55/1/4 54/1/4 53/1/4
f 56/1/4 54/1/4 55/1/4
f 59/1/4 58/1/4 57/1/4
f 60/1/4 58/1/4 59/1/4
f 63/1/4 62/1/4 61/1/4
f 64/1/4 62/1/4 63/1/4
f 67/1/4 66/1/4 65/1/4
f 68/1/4 66/1/4 67/1/4
f 71/1/4 70/1/4 69/1/4
f 72/1/4 70/1/4 71/1/4
f 75/1/4 74/1/4 73/1/4
f 76/1/4 74/1/4 75/1/4
f 79/1/4 78/1/4 77/1/4
f 80/1/4 78/1/4 79/1/4
f 83/1/4 82/1/4 81/1/4
f 84/1/4 82/1/4 83/1/4
f 87/1/4 86/1/4 85/1/4
f 88/1/4 86/1/4 87/1/4
f 91/1/4 90/1/4 89/1/4
f 92/1/4 90/1/4 91/1/4
f 95/1/4 94/1/4 93/1/4
f 96/1/4 94/1/4 95/1/4
f 97/1/5 98/1/5 99/1/5
f 99/1/5 98/1/5 100/1/5
f 101/1/5 102/1/5 103/1/5
f 103/1/5 102/1/5 104/1/5
f 105/1/5 106/1/5 107/1/5
f 107/1/5 106/1/5 108/1/5
f 109/1/5 110/1/5 111/1/5
f 111/1/5 110/1/5 112/1/5
f 113/1/5 114/1/5 115/1/5
f 115/1/5 114/1/5 116/1/5
f 117/1/5 118/1/5 119/1/5
f 119/1/5 118/1/5 120/1/5
f 121/1/5 122/1/5 123/1/5
f 123/1/5 122/1/5 124/1/5
f 125/1/5 126/1/5 127/1/5
f 127/1/5 126/1/5 128/1/5
f 129/1/5 130/1/5 131/1/5
f 131/1/5 130/1/5 132/1/5
f 133/1/5 134/1/5 135/1/5
f 135/1/5 134/1/5 136/1/5
f 139/1/6 138/1/6 137/1/6
f 140/1/6 138/1/6 139/1/6
f 143/1/6 142/1/6 141/1/6
f 144/1/6 142/1/6 143/1/6
